<svg width="31" height="31" viewBox="0 0 31 31" fill="none" xmlns="http://www.w3.org/2000/svg">
<path d="M26.9468 20.8968L28.0938 16.5959V14.0469C27.6011 8.35589 22.7697 3.875 16.9531 3.875H15.0156V14.0469H8.00175L6.92136 9.27772C6.82615 8.84586 6.58675 8.45929 6.24256 8.18161C5.89838 7.90394 5.46992 7.75172 5.02769 7.75H0.96875V9.6875H5.02769L7.47833 20.5054C6.60384 20.7371 5.8117 21.209 5.19166 21.8678C4.57162 22.5265 4.14844 23.3457 3.97008 24.2326C3.79171 25.1195 3.86529 26.0387 4.18247 26.8859C4.49964 27.7331 5.04775 28.4746 5.76469 29.0263C6.48163 29.578 7.33875 29.918 8.23896 30.0076C9.13916 30.0972 10.0465 29.9329 10.8581 29.5333C11.6697 29.1338 12.3533 28.5149 12.8312 27.7468C13.3092 26.9787 13.5625 26.0922 13.5625 25.1875C13.5625 25.024 13.5544 24.8626 13.5383 24.7031H19.8836C19.8676 24.8625 19.8596 25.0239 19.8594 25.1875C19.859 26.0465 20.0871 26.8901 20.5202 27.6319C20.9533 28.3736 21.5759 28.9869 22.3241 29.4088C23.0723 29.8307 23.9192 30.046 24.7781 30.0327C25.637 30.0194 26.4768 29.778 27.2116 29.3331C27.9464 28.8883 28.5497 28.256 28.9597 27.5012C29.3696 26.7464 29.5714 25.8961 29.5445 25.0376C29.5175 24.179 29.2628 23.3431 28.8063 22.6155C28.3498 21.8878 27.7081 21.2947 26.9468 20.8968ZM16.9531 5.8125C21.7007 5.8125 25.6201 9.42582 26.1056 14.0469H16.9531V5.8125ZM8.71875 28.0938C8.14395 28.0938 7.58205 27.9233 7.10412 27.604C6.62619 27.2846 6.25369 26.8307 6.03373 26.2997C5.81376 25.7686 5.7562 25.1843 5.86834 24.6205C5.98048 24.0568 6.25727 23.5389 6.66372 23.1325C7.07017 22.726 7.58801 22.4492 8.15177 22.3371C8.71553 22.225 9.29988 22.2825 9.83092 22.5025C10.362 22.7224 10.8159 23.0949 11.1352 23.5729C11.4546 24.0508 11.625 24.6127 11.625 25.1875C11.6241 25.958 11.3176 26.6967 10.7728 27.2416C10.228 27.7864 9.48926 28.0929 8.71875 28.0938ZM20.511 22.7656H12.9108C12.5467 22.1362 12.0458 21.5966 11.4451 21.1868C10.8445 20.7769 10.1594 20.5073 9.44053 20.3978L8.44072 15.9844H26.1562V16.3416L25.0846 20.36C24.9577 20.3495 24.8304 20.3441 24.7031 20.3436C23.8533 20.3442 23.0187 20.5684 22.2829 20.9935C21.5471 21.4186 20.936 22.0298 20.511 22.7656ZM24.7031 28.0938C24.1283 28.0938 23.5664 27.9233 23.0885 27.604C22.6106 27.2846 22.2381 26.8307 22.0181 26.2997C21.7981 25.7686 21.7406 25.1843 21.8527 24.6205C21.9649 24.0568 22.2416 23.5389 22.6481 23.1325C23.0545 22.726 23.5724 22.4492 24.1361 22.3371C24.6999 22.225 25.2843 22.2825 25.8153 22.5025C26.3463 22.7224 26.8002 23.0949 27.1196 23.5729C27.4389 24.0508 27.6094 24.6127 27.6094 25.1875C27.6085 25.958 27.302 26.6967 26.7572 27.2416C26.2123 27.7864 25.4736 28.0929 24.7031 28.0938Z" fill="black"/>
</svg>
