<svg width="26" height="26" viewBox="0 0 26 26" fill="none" xmlns="http://www.w3.org/2000/svg">
<path d="M4.33242 11.2667V10.4H3.46576V11.2667H4.33242ZM4.33242 18.2H3.46576V19.0667H4.33242V18.2ZM21.6658 11.2667H22.5324V10.4H21.6658V11.2667ZM21.6658 18.2V19.0667H22.5324V18.2H21.6658ZM23.3991 6.06667H24.2658V5.70787L24.0127 5.45307L23.3991 6.06667ZM18.1991 0.866667L18.8127 0.253067L18.5579 0H18.1991V0.866667ZM3.46576 11.2667V18.2H5.19909V11.2667H3.46576ZM4.33242 19.0667H6.06576V17.3333H4.33242V19.0667ZM8.66576 16.4667V13H6.93242V16.4667H8.66576ZM6.06576 10.4H4.33242V12.1333H6.06576V10.4ZM8.66576 13C8.66576 12.3104 8.39183 11.6491 7.90423 11.1615C7.41664 10.6739 6.75532 10.4 6.06576 10.4V12.1333C6.29561 12.1333 6.51605 12.2246 6.67858 12.3872C6.84111 12.5497 6.93242 12.7701 6.93242 13H8.66576ZM6.06576 19.0667C6.75532 19.0667 7.41664 18.7927 7.90423 18.3051C8.39183 17.8176 8.66576 17.1562 8.66576 16.4667H6.93242C6.93242 16.6965 6.84111 16.917 6.67858 17.0795C6.51605 17.242 6.29561 17.3333 6.06576 17.3333V19.0667ZM10.3991 13V16.4667H12.1324V13H10.3991ZM15.5991 16.4667V13H13.8658V16.4667H15.5991ZM15.5991 13C15.5991 12.3104 15.3252 11.6491 14.8376 11.1615C14.35 10.6739 13.6887 10.4 12.9991 10.4V12.1333C13.2289 12.1333 13.4494 12.2246 13.6119 12.3872C13.7744 12.5497 13.8658 12.7701 13.8658 13H15.5991ZM12.9991 19.0667C13.6887 19.0667 14.35 18.7927 14.8376 18.3051C15.3252 17.8176 15.5991 17.1562 15.5991 16.4667H13.8658C13.8658 16.6965 13.7744 16.917 13.6119 17.0795C13.4494 17.242 13.2289 17.3333 12.9991 17.3333V19.0667ZM10.3991 16.4667C10.3991 17.1562 10.673 17.8176 11.1606 18.3051C11.6482 18.7927 12.3095 19.0667 12.9991 19.0667V17.3333C12.7692 17.3333 12.5488 17.242 12.3863 17.0795C12.2237 16.917 12.1324 16.6965 12.1324 16.4667H10.3991ZM12.1324 13C12.1324 12.7701 12.2237 12.5497 12.3863 12.3872C12.5488 12.2246 12.7692 12.1333 12.9991 12.1333V10.4C12.3095 10.4 11.6482 10.6739 11.1606 11.1615C10.673 11.6491 10.3991 12.3104 10.3991 13H12.1324ZM17.3324 10.4V19.0667H19.0658V10.4H17.3324ZM18.1991 12.1333H21.6658V10.4H18.1991V12.1333ZM20.7991 11.2667V13.8667H22.5324V11.2667H20.7991ZM18.1991 19.0667H21.6658V17.3333H18.1991V19.0667ZM22.5324 18.2V15.6H20.7991V18.2H22.5324ZM3.46576 8.66667V2.6H1.73242V8.66667H3.46576ZM22.5324 6.06667V8.66667H24.2658V6.06667H22.5324ZM4.33242 1.73333H18.1991V0H4.33242V1.73333ZM17.5855 1.48027L22.7855 6.68027L24.0127 5.45307L18.8127 0.253067L17.5855 1.48027ZM3.46576 2.6C3.46576 2.37015 3.55706 2.14971 3.7196 1.98717C3.88213 1.82464 4.10257 1.73333 4.33242 1.73333V0C3.64286 0 2.98154 0.273928 2.49394 0.761522C2.00635 1.24912 1.73242 1.91044 1.73242 2.6H3.46576ZM1.73242 20.8V23.4H3.46576V20.8H1.73242ZM4.33242 26H21.6658V24.2667H4.33242V26ZM24.2658 23.4V20.8H22.5324V23.4H24.2658ZM21.6658 26C22.3553 26 23.0166 25.7261 23.5042 25.2385C23.9918 24.7509 24.2658 24.0896 24.2658 23.4H22.5324C22.5324 23.6299 22.4411 23.8503 22.2786 24.0128C22.1161 24.1754 21.8956 24.2667 21.6658 24.2667V26ZM1.73242 23.4C1.73242 24.0896 2.00635 24.7509 2.49394 25.2385C2.98154 25.7261 3.64286 26 4.33242 26V24.2667C4.10257 24.2667 3.88213 24.1754 3.7196 24.0128C3.55706 23.8503 3.46576 23.6299 3.46576 23.4H1.73242Z" fill="black"/>
</svg>
