<svg width="26" height="20" viewBox="0 0 26 20" fill="none" xmlns="http://www.w3.org/2000/svg">
<path d="M23.8075 5.90768C23.6171 5.84301 23.4142 5.81005 23.2096 5.81054H23.1882C22.1076 5.82442 20.8958 6.69818 20.26 8.01969C19.4976 9.60069 19.8485 11.2182 21.0496 11.6341C21.2398 11.6987 21.4425 11.7317 21.6469 11.7312C22.7328 11.7312 23.9612 10.8524 24.6025 9.52206C25.3594 7.94106 25.0032 6.32351 23.8075 5.90768ZM16.8357 12.0772C15.3464 9.94345 14.7035 9.14092 12.9999 9.14092C11.2964 9.14092 10.6481 9.94853 9.15885 12.0772C7.88385 13.8978 5.30706 14.0495 4.6642 15.5958C4.53378 15.8791 4.46828 16.1815 4.47134 16.4862C4.47134 17.7439 5.58563 18.762 6.95706 18.762C8.66064 18.762 10.9803 17.5876 13.0053 17.5876C15.0303 17.5876 17.3392 18.762 19.0428 18.762C20.4142 18.762 21.5232 17.7444 21.5232 16.4862C21.5244 16.1812 21.4571 15.8788 21.325 15.5958C20.6821 14.044 18.1107 13.8978 16.8357 12.0772ZM9.59867 7.10569C9.67041 7.10574 9.74204 7.1011 9.81296 7.09181C11.0564 6.93593 11.8326 5.44836 11.5508 3.76837C11.2856 2.1846 10.1724 1 9.00832 1C8.93658 0.99995 8.86495 1.00459 8.79403 1.01388C7.55063 1.16976 6.77438 2.65732 7.05617 4.33731C7.32135 5.91647 8.43456 7.10569 9.59867 7.10569ZM18.9421 4.33731C19.2239 2.65732 18.4476 1.16976 17.2042 1.01388C17.1333 1.00459 17.0617 0.99995 16.9899 1C15.8258 1 14.7148 2.1846 14.449 3.76837C14.1673 5.44836 14.9435 6.93593 16.1869 7.09181C16.2578 7.1011 16.3295 7.10574 16.4012 7.10569C17.5653 7.10569 18.6785 5.91647 18.9421 4.33731ZM4.95188 11.6341C6.15134 11.2178 6.5017 9.59884 5.74045 8.01969C5.09973 6.68939 3.87241 5.81054 2.78812 5.81054C2.58369 5.81006 2.38101 5.84302 2.1908 5.90768C0.991331 6.32397 0.640972 7.94291 1.40222 9.52206C2.04294 10.8524 3.27027 11.7312 4.35455 11.7312C4.55898 11.7317 4.76166 11.6987 4.95188 11.6341Z" stroke="black" stroke-width="2" stroke-miterlimit="10"/>
</svg>
