<svg width="20" height="49" viewBox="0 0 20 49" fill="none" xmlns="http://www.w3.org/2000/svg">
<path d="M0.49815 3.73246L15.1366 22.5254C15.4577 22.9355 15.6377 23.489 15.6377 24.0658C15.6377 24.6425 15.4577 25.1961 15.1366 25.6061L0.501324 44.4031C0.181947 44.8166 0.00317596 45.3716 0.00317596 45.9494C0.00317596 46.5273 0.181947 47.0822 0.501324 47.4958C0.65808 47.6989 0.845437 47.8604 1.05235 47.9707C1.25927 48.0809 1.48156 48.1377 1.70611 48.1377C1.93067 48.1377 2.15296 48.0809 2.35988 47.9707C2.56679 47.8604 2.75415 47.6989 2.91091 47.4958L17.5462 28.7068C18.5079 27.4693 19.0467 25.8042 19.0467 24.0698C19.0467 22.3354 18.5079 20.6703 17.5462 19.4327L2.91091 0.643761C2.7541 0.43998 2.56655 0.277992 2.35934 0.167381C2.15213 0.0567703 1.92947 -0.000221252 1.70453 -0.000221252C1.47959 -0.000221252 1.25693 0.0567703 1.04972 0.167381C0.842507 0.277992 0.654955 0.43998 0.49815 0.643761C0.178772 1.05734 0 1.61228 0 2.19012C0 2.76795 0.178772 3.3229 0.49815 3.73647" fill="white"/>
</svg>
