<svg width="20" height="49" viewBox="0 0 20 49" fill="none" xmlns="http://www.w3.org/2000/svg">
<path d="M18.5487 44.4052L3.91028 25.6123C3.58922 25.2022 3.40915 24.6487 3.40915 24.0719C3.40915 23.4951 3.58922 22.9416 3.91028 22.5316L18.5456 3.73463C18.8649 3.32105 19.0437 2.76611 19.0437 2.18828C19.0437 1.61044 18.8649 1.0555 18.5456 0.641918C18.3888 0.438751 18.2014 0.277288 17.9945 0.167042C17.7876 0.0567968 17.5653 0 17.3408 0C17.1162 0 16.8939 0.0567968 16.687 0.167042C16.4801 0.277288 16.2927 0.438751 16.136 0.641918L1.50069 19.4309C0.538998 20.6684 0.00019455 22.3335 0.00019455 24.0679C0.00019455 25.8023 0.538998 27.4674 1.50069 28.705L16.136 47.4939C16.2928 47.6977 16.4803 47.8597 16.6875 47.9703C16.8947 48.0809 17.1174 48.1379 17.3423 48.1379C17.5673 48.1379 17.7899 48.0809 17.9972 47.9703C18.2044 47.8597 18.3919 47.6977 18.5487 47.4939C18.8681 47.0804 19.0469 46.5254 19.0469 45.9476C19.0469 45.3697 18.8681 44.8148 18.5487 44.4012" fill="white"/>
</svg>
