<svg width="29" height="29" viewBox="0 0 29 29" fill="none" xmlns="http://www.w3.org/2000/svg">
<path d="M14.5281 3.625C14.2018 3.95125 13.9617 4.33641 13.6789 4.95628C13.3953 5.57525 13.1442 6.35462 13.1406 7.22191C13.137 8.08919 13.4379 9.07972 14.2172 9.82737C14.9957 10.5741 16.1847 11.0599 17.8422 11.2719C19.2225 11.4487 20.1106 11.6752 20.6172 11.9788C21.1238 12.2842 21.3331 12.5951 21.4953 13.3382L23.2788 12.9422C23.0459 11.8728 22.4542 10.9638 21.5515 10.4219C20.6489 9.87994 19.5442 9.64703 18.0688 9.45853C16.6551 9.27819 15.8666 8.88216 15.4633 8.49609C15.0592 8.11003 14.9531 7.714 14.9531 7.22191C14.9531 6.72981 15.1126 6.177 15.3211 5.72025C15.5295 5.26441 15.8521 4.85025 15.8032 4.89919L14.5281 3.625ZM19.5415 3.90866V5.72116C20.1033 5.72116 20.8293 5.80544 21.3812 6.11719C21.934 6.42894 22.4016 6.88931 22.514 8.21334L22.6001 9.0625H23.4211C23.8878 9.0625 24.8621 9.2075 25.3469 9.62891C25.5871 9.84097 25.7429 10.0893 25.8 10.5633C25.8562 11.0381 25.771 11.7631 25.3469 12.8008L27.0461 13.4805C27.5518 12.248 27.7186 11.2257 27.6125 10.3367C27.5223 9.53801 27.1386 8.80133 26.5359 8.26953C25.7185 7.55359 24.8294 7.37053 24.1008 7.30619C23.7854 5.99666 23.1311 5.00884 22.2883 4.53125C21.2724 3.95397 20.213 3.90775 19.5406 3.90775L19.5415 3.90866ZM0.90625 14.5V19.9375H28.0938V14.5H0.90625ZM2.71875 16.3125H20.8438V18.125H2.71875V16.3125ZM22.6562 16.3125H23.5625V18.125H22.6562V16.3125ZM25.375 16.3125H26.2812V18.125H25.375V16.3125Z" fill="black"/>
</svg>
